HIERARCHY
ROOT root
{
	OFFSET 0.000000 0.000000 0.000000
	CHANNELS 6 Xposition Yposition Zposition Zrotation Yrotation Xrotation
	JOINT lhip
	{
		OFFSET 0.058581 -0.082280 -0.017664
		CHANNELS 3 Zrotation Yrotation Xrotation
		JOINT lknee
		{
			OFFSET 0.043451 -0.386469 0.008037
			CHANNELS 3 Zrotation Yrotation Xrotation
			JOINT lankle
			{
				OFFSET -0.014790 -0.426874 -0.037428
				CHANNELS 3 Zrotation Yrotation Xrotation
				JOINT ltoe
				{
					OFFSET 0.041054 -0.060286 0.122042
					CHANNELS 3 Zrotation Yrotation Xrotation
					End Site
					{
						OFFSET 0.000000 0.000000 0.000000
					}
				}
			}
		}
	}
	JOINT rhip
	{
		OFFSET -0.060310 -0.090513 -0.013543
		CHANNELS 3 Zrotation Yrotation Xrotation
		JOINT rknee
		{
			OFFSET -0.043257 -0.383688 -0.004843
			CHANNELS 3 Zrotation Yrotation Xrotation
			JOINT rankle
			{
				OFFSET 0.019056 -0.420046 -0.034562
				CHANNELS 3 Zrotation Yrotation Xrotation
				JOINT rtoe
				{
					OFFSET -0.034840 -0.062106 0.130323
					CHANNELS 3 Zrotation Yrotation Xrotation
					End Site
					{
						OFFSET 0.000000 0.000000 0.000000
					}
				}
			}
		}
	}
	JOINT lowerback
	{
		OFFSET 0.004439 0.124404 -0.038385
		CHANNELS 3 Zrotation Yrotation Xrotation
		JOINT upperback
		{
			OFFSET 0.004488 0.137956 0.026820
			CHANNELS 3 Zrotation Yrotation Xrotation
			JOINT chest
			{
				OFFSET -0.002265 0.056032 0.002855
				CHANNELS 3 Zrotation Yrotation Xrotation
				JOINT lowerneck
				{
					OFFSET -0.013390 0.211636 -0.033468
					CHANNELS 3 Zrotation Yrotation Xrotation
					JOINT upperneck
					{
						OFFSET 0.010113 0.088937 0.050410
						CHANNELS 3 Zrotation Yrotation Xrotation
						End Site
						{
							OFFSET 0.000000 0.000000 0.000000
						}
					}
				}
				JOINT lclavicle
				{
					OFFSET 0.071702 0.114000 -0.018898
					CHANNELS 3 Zrotation Yrotation Xrotation
					JOINT lshoulder
					{
						OFFSET 0.122921 0.045205 -0.019046
						CHANNELS 3 Zrotation Yrotation Xrotation
						JOINT lelbow
						{
							OFFSET 0.255332 -0.015649 -0.022946
							CHANNELS 3 Zrotation Yrotation Xrotation
							JOINT lwrist
							{
								OFFSET 0.265709 0.012698 -0.007375
								CHANNELS 3 Zrotation Yrotation Xrotation
								End Site
								{
									OFFSET 0.000000 0.000000 0.000000
								}
							}
						}
					}
				}
				JOINT rclavicle
				{
					OFFSET -0.082954 0.112472 -0.023707
					CHANNELS 3 Zrotation Yrotation Xrotation
					JOINT rshoulder
					{
						OFFSET -0.113228 0.046853 -0.008472
						CHANNELS 3 Zrotation Yrotation Xrotation
						JOINT relbow
						{
							OFFSET -0.260127 -0.014369 -0.031269
							CHANNELS 3 Zrotation Yrotation Xrotation
							JOINT rwrist
							{
								OFFSET -0.269108 0.006794 -0.006027
								CHANNELS 3 Zrotation Yrotation Xrotation
								End Site
								{
									OFFSET 0.000000 0.000000 0.000000
								}
							}
						}
					}
				}
			}
		}
	}
}
MOTION
Frames: 5
Frame Time: 0.033333
0.521880 0.253419 0.999759 93.312438 2.290028 99.243805 6.371437 2.987715 -8.095035 2.925104 -1.177687 -3.978447 -1.701148 5.284124 -3.313776 0.000000 -0.000000 0.000000 -2.161495 -0.804739 -10.002899 -2.704739 -2.605338 3.102531 7.554343 -3.395498 -4.427819 0.000000 -0.000000 0.000000 -3.078781 1.068072 -3.729062 4.556166 -6.473628 11.677350 1.244438 3.039758 -10.597422 -5.968794 -0.909523 32.772861 10.547872 12.207864 10.679684 -11.757705 -18.209986 1.385419 -73.333706 -38.307025 40.475110 -175.589966 -45.551498 -147.563861 52.742856 11.682590 -3.926570 10.544887 15.746960 5.544891 63.527869 43.198307 31.012147 172.967422 44.731108 -171.733938 -64.748038 -13.411326 -18.681991 
0.521006 0.253595 1.000303 93.346609 2.279285 99.537649 6.330259 3.034226 -8.414799 2.933495 -1.136701 -4.110173 -1.859332 5.170818 -3.205032 0.000000 -0.000000 0.000000 -2.158965 -0.764541 -10.272241 -2.724360 -2.587259 2.909798 7.624670 -3.460669 -4.297656 0.000000 -0.000000 0.000000 -2.951515 1.071900 -3.493029 4.432155 -6.333284 10.952747 1.306087 3.017781 -10.689772 -5.451013 -0.747198 32.034620 10.207925 11.860574 10.305734 -11.385139 -18.663480 1.012539 -72.966235 -38.718332 39.963376 -176.522071 -45.387041 -145.783144 52.789618 10.360460 -2.409787 9.946436 16.404816 5.355449 63.712268 43.540643 31.272027 173.408796 44.652807 -170.553861 -65.845094 -13.751150 -18.725403 
0.520868 0.253831 1.000907 93.359357 2.296998 99.685619 6.298822 3.025881 -8.559764 2.979801 -1.080086 -4.155604 -1.825051 5.136427 -3.183131 0.000000 -0.000000 0.000000 -2.085466 -0.759793 -10.454650 -2.803761 -2.443328 2.923373 7.589388 -3.585543 -4.276627 0.000000 -0.000000 0.000000 -2.881790 1.138762 -3.317161 4.417212 -6.212594 10.103486 1.368803 3.038246 -10.677852 -5.214485 -0.889372 30.967604 10.042483 11.471048 10.013900 -11.007037 -19.140386 0.521017 -72.887518 -38.990246 40.222296 -177.211157 -44.815569 -145.004611 52.420926 10.535114 -1.979298 9.668499 16.953812 4.994868 63.751958 43.767504 31.675548 173.953906 44.529703 -169.508219 -66.644200 -14.070601 -18.268416 
0.521453 0.254019 1.001118 93.461547 2.301870 99.565442 6.286296 2.974755 -8.446438 3.004629 -1.072426 -4.083379 -1.835210 5.121597 -3.229924 0.000000 -0.000000 0.000000 -2.050177 -0.782473 -10.293351 -2.835528 -2.384558 2.967809 7.567749 -3.700433 -4.279594 0.000000 -0.000000 0.000000 -2.840079 1.163751 -3.095070 4.458736 -6.143154 9.308771 1.385385 3.046030 -10.479502 -4.960295 -1.109627 29.956627 9.924011 11.168649 9.969091 -10.838420 -19.196826 0.080257 -72.933838 -39.274822 40.423738 -177.523945 -44.782778 -144.680746 52.027062 10.427761 -2.204974 9.725641 17.140733 4.605511 63.740808 43.922891 31.929300 174.308646 44.503632 -168.843562 -66.645063 -14.104528 -18.249650 
0.522425 0.254250 1.001367 93.565194 2.333408 99.171271 6.351718 2.995511 -7.925338 2.970228 -1.182160 -4.130355 -1.873466 5.076893 -3.407042 0.000000 -0.000000 0.000000 -2.051808 -0.817965 -9.768532 -2.780789 -2.419436 2.986963 7.480352 -3.707166 -4.314433 0.000000 -0.000000 0.000000 -2.808842 1.178128 -2.909351 4.521127 -6.096752 9.015358 1.435231 2.998376 -10.296885 -4.654402 -1.138610 29.592300 9.721983 11.054148 9.463580 -10.899520 -18.978025 -0.208048 -73.130858 -39.377457 40.479400 -177.544628 -45.031182 -144.328727 51.138742 9.652298 -2.398134 9.811691 17.031931 4.360155 63.933118 43.938512 32.151372 174.360645 44.515630 -168.515087 -65.548185 -14.033964 -18.730046 
